<?xml version="1.0" standalone="no"?>
<!DOCTYPE svg PUBLIC "-//W3C//DTD SVG 20010904//EN"
 "http://www.w3.org/TR/2001/REC-SVG-20010904/DTD/svg10.dtd">
<svg version="1.0" xmlns="http://www.w3.org/2000/svg"
 width="1024.000000pt" height="1024.000000pt" viewBox="0 0 1024.000000 1024.000000"
 preserveAspectRatio="xMidYMid meet">
<metadata>
Created by potrace 1.14, written by Peter Selinger 2001-2017
</metadata>
<g transform="translate(0.000000,1024.000000) scale(0.100000,-0.100000)"
fill="#000000" stroke="none">
<path d="M5677 10114 c-1 -1 -56 -4 -122 -8 -66 -3 -136 -8 -155 -11 -19 -2
-55 -7 -80 -10 -62 -8 -175 -26 -255 -41 -146 -27 -396 -101 -560 -166 -102
-40 -316 -143 -370 -178 -16 -11 -48 -29 -69 -41 -21 -11 -44 -25 -50 -30 -6
-5 -54 -40 -106 -79 -52 -39 -129 -104 -172 -145 -82 -79 -198 -216 -198 -234
0 -6 -4 -11 -8 -11 -12 0 -96 -165 -121 -237 -46 -138 -60 -327 -31 -435 7
-24 14 -54 17 -68 7 -39 46 -130 85 -201 86 -152 260 -329 365 -370 53 -21
135 -37 167 -32 79 11 166 84 211 178 8 17 40 75 70 130 30 55 60 111 67 125
25 50 137 218 188 280 128 158 278 281 430 355 154 74 253 97 450 101 148 3
211 -4 305 -34 85 -27 189 -98 240 -164 17 -21 35 -44 41 -51 17 -19 65 -125
80 -177 72 -244 64 -632 -21 -924 -57 -198 -190 -440 -374 -681 -72 -95 -224
-288 -241 -306 -8 -8 -35 -40 -60 -70 -78 -93 -191 -224 -203 -234 -7 -5 -37
-39 -67 -75 -30 -35 -62 -72 -70 -81 -66 -72 -102 -113 -150 -169 -30 -36 -60
-69 -66 -75 -15 -15 -111 -127 -278 -325 -81 -96 -166 -197 -189 -224 -65 -77
-227 -287 -256 -331 -14 -22 -29 -42 -32 -45 -13 -10 -138 -209 -192 -306 -91
-163 -204 -428 -222 -523 -2 -9 -8 -36 -15 -61 -7 -25 -14 -56 -17 -70 -2 -14
-8 -44 -13 -67 -5 -22 -12 -65 -16 -95 -3 -29 -9 -78 -14 -108 -8 -53 -5 -403
3 -466 26 -182 100 -363 177 -431 24 -21 84 -55 105 -59 60 -11 88 -10 154 7
101 26 265 108 431 216 74 48 142 93 150 100 8 6 60 45 115 85 239 177 461
385 538 504 76 117 81 181 31 385 -29 117 -29 120 -43 204 -10 62 -8 344 3
405 41 241 119 405 290 610 74 88 296 315 426 434 76 70 374 327 465 401 57
47 130 107 165 139 14 12 54 46 89 76 35 30 74 64 85 75 12 11 62 56 111 100
341 305 543 555 710 878 111 216 160 364 202 617 24 140 23 571 -1 641 -3 8
-7 28 -10 44 -15 101 -57 243 -109 365 -148 348 -436 631 -807 794 -144 64
-362 128 -515 152 -27 4 -52 9 -55 9 -30 8 -167 24 -263 31 -74 5 -365 12
-370 8z"/>
<path d="M4395 2195 c-115 -23 -125 -25 -189 -47 -231 -79 -482 -268 -638
-480 -88 -121 -98 -136 -143 -226 -180 -360 -169 -740 28 -977 23 -27 52 -58
64 -68 13 -10 29 -24 36 -30 40 -39 176 -108 238 -121 102 -23 135 -27 219
-27 98 -1 117 1 235 28 339 76 677 360 859 722 129 256 163 522 96 760 -64
225 -224 386 -450 451 -94 27 -257 34 -355 15z"/>
</g>
</svg>
